<svg width="35" height="32" viewBox="0 0 35 32" fill="none" xmlns="http://www.w3.org/2000/svg">
<path d="M33.89 7.24999C33.5876 6.72607 33.1546 6.28947 32.6332 5.98277C32.1118 5.67606 31.5198 5.50973 30.915 5.49999H8.515L7.5 1.54499C7.39745 1.16321 7.16866 0.827391 6.85088 0.59224C6.53311 0.357088 6.14508 0.236456 5.75 0.249989H2.25C1.78587 0.249989 1.34075 0.434363 1.01256 0.762552C0.684374 1.09074 0.5 1.53586 0.5 1.99999C0.5 2.46412 0.684374 2.90924 1.01256 3.23743C1.34075 3.56561 1.78587 3.74999 2.25 3.74999H4.42L9.25 21.705C9.35255 22.0868 9.58134 22.4226 9.89911 22.6577C10.2169 22.8929 10.6049 23.0135 11 23H26.75C27.0732 22.999 27.3897 22.9086 27.6647 22.7387C27.9396 22.5688 28.1621 22.3261 28.3075 22.0375L34.0475 10.5575C34.2963 10.036 34.4121 9.46106 34.3846 8.88393C34.3571 8.30681 34.1872 7.74546 33.89 7.24999Z" fill="#565656"/>
<path d="M10.125 31.75C11.5747 31.75 12.75 30.5747 12.75 29.125C12.75 27.6753 11.5747 26.5 10.125 26.5C8.67525 26.5 7.5 27.6753 7.5 29.125C7.5 30.5747 8.67525 31.75 10.125 31.75Z" fill="#565656"/>
<path d="M27.625 31.75C29.0747 31.75 30.25 30.5747 30.25 29.125C30.25 27.6753 29.0747 26.5 27.625 26.5C26.1753 26.5 25 27.6753 25 29.125C25 30.5747 26.1753 31.75 27.625 31.75Z" fill="#565656"/>
</svg>
