<svg width="24" height="20" viewBox="0 0 24 20" fill="none" xmlns="http://www.w3.org/2000/svg">
<path d="M23.643 2.93706C22.808 3.30706 21.911 3.55706 20.968 3.67006C21.941 3.08785 22.669 2.17153 23.016 1.09206C22.1019 1.63505 21.1014 2.01726 20.058 2.22206C19.3564 1.47293 18.4271 0.976388 17.4143 0.809536C16.4016 0.642684 15.3621 0.814853 14.4572 1.29931C13.5524 1.78378 12.8328 2.55342 12.4102 3.48877C11.9875 4.42411 11.8855 5.47281 12.12 6.47206C10.2677 6.37906 8.45564 5.89761 6.80144 5.05897C5.14723 4.22032 3.68785 3.04322 2.51801 1.60406C2.11801 2.29406 1.88801 3.09406 1.88801 3.94606C1.88757 4.71306 2.07644 5.4683 2.43789 6.14479C2.79934 6.82128 3.32217 7.3981 3.96001 7.82406C3.22029 7.80052 2.49688 7.60065 1.85001 7.24106V7.30106C1.84994 8.3768 2.22204 9.41944 2.90319 10.2521C3.58434 11.0847 4.53258 11.656 5.58701 11.8691C4.9008 12.0548 4.18135 12.0821 3.48301 11.9491C3.78051 12.8747 4.36001 13.6841 5.14038 14.264C5.92075 14.8439 6.86293 15.1652 7.83501 15.1831C6.18484 16.4785 4.1469 17.1812 2.04901 17.1781C1.67739 17.1782 1.30609 17.1565 0.937012 17.1131C3.06649 18.4822 5.54535 19.2089 8.07701 19.2061C16.647 19.2061 21.332 12.1081 21.332 5.95206C21.332 5.75206 21.327 5.55006 21.318 5.35006C22.2293 4.69104 23.0159 3.87496 23.641 2.94006L23.643 2.93706Z" fill="#565656"/>
</svg>
